<svg xmlns="http://www.w3.org/2000/svg" viewBox="0 0 506.9 395"><mask id="c" maskUnits="userSpaceOnUse" x="-2" y="-2" width="510.9" height="399"><path d="M14.3 1.7C35.4 0 56.6 2.1 77.8 1.2C202.4 1.4 327 1.1 451.7 1.4C465.4 1.3 479.1 .4 492.8 1.7C499.4 2 506.1 9.3 505.6 18.1C506.9 26.6 501 32.1 496.1 35.9C500.9 39.7 506.7 44.6 505.5 53.1C506.4 61 500.9 66 496.5 70C500.8 74.2 506.7 78.7 505.6 87C506.9 95.1 500.9 100.7 496.1 104.1C501 107.9 506.8 113.3 505.6 121.8C506.3 129.7 500.6 134.7 495.9 138.2C501 141.5 506.9 147.3 505.6 155.7C506.4 163.7 500.8 168.8 496 172.2C501.1 175.5 506.8 181.2 505.6 189.6C506.3 197.6 500.8 202.7 496.1 206.2C501.2 209.4 506.8 215.2 505.6 223.5C506.2 231.4 501 237 496 240.2C500.4 244.1 506.6 248.2 505.6 256.4C506.9 264.7 501.1 270.1 496.5 274.5C501.3 278 506.5 283.3 505.5 291.3C506.3 299.3 501.1 305.2 496.1 308.5C501 312.2 506.9 317.7 505.6 326.2C506.1 334 500.8 339.1 496.2 342.5L480.4 342.5C480.5 342.8 480.5 343.1 480.5 343.4L480.4 348.5C480.5 348.8 480.6 349.1 480.6 349.4C485.1 371.1 473.6 382.6 457.5 391.4C453.8 393.3 450 393.6 446.2 392C443.7 391 441.6 389.4 440 387.3C436.5 389.3 432.7 390.7 428.4 392.3C424.6 393.8 420.8 393.5 417.2 391.5C415 390.3 413.3 388.6 411.9 386.5C406.9 389 401.4 390.4 396.4 390.4C391.3 390.3 386.9 387.4 384.3 382.9C378.7 384.9 372.5 385.8 367.4 384.7C363.4 383.8 360.2 381.4 358 377.5C357.8 377.1 357.5 376.7 357.3 376.2C352 377.6 346.6 377.7 341.6 376.4C337.1 375.2 333.6 372 331.7 367.2C331.6 367 331.6 366.9 331.5 366.8C327.2 367.1 322.8 366.7 318.4 365.7C313.4 364.4 309.5 360.6 307.8 355.1C307.8 354.9 307.7 354.7 307.6 354.5C303.9 354.5 300.1 353.8 296.3 352.6C295.9 352.4 295.4 352.3 295 352.1C293.7 354.1 292.2 355.9 290.4 357.4C292 371.2 282 386.1 268 383.7C267.6 383.7 267.3 383.7 267 383.6C262.3 391 254.1 395 245.7 392.8C240.6 391.5 236.4 388.1 233.5 383.6C230.5 384 227.4 383.6 224.3 382.5C221.8 381.6 220.1 380.5 217.8 379.3C212.4 376.5 209.2 370.8 209.3 364.1C209.3 361.7 209.6 359.5 210.1 357.3C208.3 355.8 206.9 354.1 205.6 352.1C205.2 352.3 204.8 352.4 204.4 352.6C200.6 353.8 196.8 354.5 193 354.5C193 354.7 192.9 354.9 192.9 355.1C191.1 360.6 187.3 364.4 182.2 365.7C177.9 366.7 173.5 367.1 169.2 366.8C169.1 366.9 169.1 367 169 367.2C167.1 372 163.6 375.2 159.1 376.4C154.1 377.7 148.7 377.6 143.4 376.2C143.1 376.7 142.9 377.1 142.7 377.5C140.4 381.4 137.3 383.8 133.3 384.7C128.1 385.8 122 384.9 116.4 382.9C113.8 387.4 109.4 390.3 104.3 390.4C99.3 390.4 93.8 389 88.8 386.5C87.4 388.6 85.7 390.3 83.5 391.5C79.8 393.5 76.1 393.8 72.3 392.3C68 390.7 64.2 389.3 60.7 387.3C59.1 389.4 57 391 54.5 392C50.6 393.6 46.9 393.3 43.2 391.4C27.1 382.6 15.6 371.1 20.1 349.4C20.1 349.1 20.2 348.8 20.3 348.5L20.2 343.4C20.2 343.1 20.2 342.8 20.2 342.5L10.9 342.5C6.3 338.4 0 333.8 1.5 325.2C.8 317.4 6.1 312.4 10.4 308.3C5.7 304.7 .6 299.3 1.6 291.3C.6 283.2 6 278.1 10.6 274.2C5.5 270.7 .5 264.5 1.5 256.4C.7 248.6 6.4 243.5 11 240.2C6 236.5 .2 231 1.5 222.5C.7 214.5 6.2 209.5 11 206.1C6.1 202.5 .1 197.1 1.5 188.6C.7 180.6 6.3 175.6 11.1 172.2C6 168.9 .2 163.1 1.5 154.7C.7 146.8 6.2 141.7 10.9 138.2C6.6 134.1 .6 130 1.5 121.8C.2 113.3 6.1 107.9 11 104.1C6.7 100.2 .5 96.2 1.5 88C.2 79.7 5.9 74.1 10.6 70C6.2 65.7 .4 61.3 1.5 53C.7 45 6 39.2 11 35.8C6 32.1 .2 26.6 1.5 18.1C.9 9.2 7.5 1.7 14.3 1.7Z" fill="#fff" fill-rule="evenodd"/><path d="M15.2 11.7C17 11.7 18.5 13.5 18.5 15.6C18.5 17.8 17 19.5 15.2 19.5C13.4 19.5 11.9 17.8 11.9 15.6C11.9 13.5 13.4 11.7 15.2 11.7Z" fill-rule="evenodd"/><path d="M93.8 11.7C95.7 11.7 97.2 13.5 97.2 15.6C97.2 17.8 95.7 19.5 93.8 19.5C92 19.5 90.5 17.8 90.5 15.6C90.5 13.5 92 11.7 93.8 11.7Z" fill-rule="evenodd"/><path d="M193.3 11.7C195.2 11.7 196.7 13.5 196.7 15.6C196.7 17.8 195.2 19.5 193.3 19.5C191.5 19.5 190 17.8 190 15.6C190 13.5 191.5 11.7 193.3 11.7Z" fill-rule="evenodd"/><path d="M290.7 11.7C292.6 11.7 294.1 13.5 294.1 15.6C294.1 17.8 292.6 19.5 290.7 19.5C288.9 19.5 287.4 17.8 287.4 15.6C287.4 13.5 288.9 11.7 290.7 11.7Z" fill-rule="evenodd"/><path d="M373.3 11.7C375.2 11.7 376.7 13.5 376.7 15.6C376.7 17.8 375.2 19.5 373.3 19.5C371.5 19.5 370 17.8 370 15.6C370 13.5 371.5 11.7 373.3 11.7Z" fill-rule="evenodd"/><path d="M487.6 11.7C489.5 11.7 491 13.5 491 15.6C491 17.8 489.5 19.5 487.6 19.5C485.8 19.5 484.3 17.8 484.3 15.6C484.3 13.5 485.8 11.7 487.6 11.7Z" fill-rule="evenodd"/><path d="M18 80.3C20.5 80.3 22.6 82.9 22.6 86.2C22.6 89.5 20.5 92.1 18 92.1C15.4 92.1 13.4 89.5 13.4 86.2C13.4 82.9 15.4 80.3 18 80.3Z" fill-rule="evenodd"/><path d="M18 113.8C20.5 113.8 22.6 116.4 22.6 119.7C22.6 122.9 20.5 125.6 18 125.6C15.4 125.6 13.4 122.9 13.4 119.7C13.4 116.4 15.4 113.8 18 113.8Z" fill-rule="evenodd"/><path d="M18 147.3C20.5 147.3 22.6 149.9 22.6 153.2C22.6 156.4 20.5 159.1 18 159.1C15.4 159.1 13.4 156.4 13.4 153.2C13.4 149.9 15.4 147.3 18 147.3Z" fill-rule="evenodd"/><path d="M18 180.7C20.5 180.7 22.6 183.4 22.6 186.6C22.6 189.9 20.5 192.5 18 192.5C15.4 192.5 13.4 189.9 13.4 186.6C13.4 183.4 15.4 180.7 18 180.7Z" fill-rule="evenodd"/><path d="M18 214.2C20.5 214.2 22.6 216.9 22.6 220.1C22.6 223.4 20.5 226 18 226C15.4 226 13.4 223.4 13.4 220.1C13.4 216.9 15.4 214.2 18 214.2Z" fill-rule="evenodd"/><path d="M18 250.7C20.5 250.7 22.6 253.3 22.6 256.6C22.6 259.9 20.5 262.5 18 262.5C15.4 262.5 13.4 259.9 13.4 256.6C13.4 253.3 15.4 250.7 18 250.7Z" fill-rule="evenodd"/><path d="M18 280.8C20.5 280.8 22.6 283.4 22.6 286.7C22.6 289.9 20.5 292.6 18 292.6C15.4 292.6 13.4 289.9 13.4 286.7C13.4 283.4 15.4 280.8 18 280.8Z" fill-rule="evenodd"/><path d="M18 317.4C20.5 317.4 22.6 320.1 22.6 323.3C22.6 326.6 20.5 329.2 18 329.2C15.4 329.2 13.4 326.6 13.4 323.3C13.4 320.1 15.4 317.4 18 317.4Z" fill-rule="evenodd"/><path d="M417.5 354.1C406 354.5 395.9 367.3 396.5 374C401.8 374.1 408.6 370.8 412.2 367.4C416.6 363.2 417.4 357.9 417.5 354.1Z" fill-rule="evenodd"/><path d="M441.5 354.4C435.9 357 430.4 359.5 426.9 364.5C424.1 368.6 422.7 373.6 423.7 376.8C429.5 374.6 434.9 373.1 438.8 367.7C441.3 364.2 443 358.4 441.5 354.4Z" fill-rule="evenodd"/><path d="M394.2 351.1C383.8 349.5 371.9 360.6 370.2 368.6C374 369.4 381.2 367.6 386 364.2C391.5 360.3 392.8 354.7 394.2 351.1Z" fill-rule="evenodd"/><path d="M329 326.5C321.6 324.2 305.7 326.2 300.3 336.9C309.5 339.8 321.4 338.4 329 326.5Z" fill-rule="evenodd"/><path d="M348.8 336.5C337.1 337.1 330.3 337.5 321.6 349.7C329.9 351.7 338.9 350.4 345.1 343.3L348.4 338.6C349.4 336 348.7 338.2 348.8 336.5Z" fill-rule="evenodd"/><path d="M370.7 345.2C367.4 344.6 360.1 346.2 355.8 348.5C349.9 351.7 346.9 356.5 345 360.5C354.4 363 368.8 355.5 370.7 345.2Z" fill-rule="evenodd"/><path d="M466.4 353C466 353.1 466.3 352.9 464.6 353.6C463.4 354.1 464.3 353.6 462.9 354.4C461.5 355.2 459.8 356.4 458.6 357.3C452.1 362.4 448.7 370.8 451.1 376.6C464.8 369.2 468.6 363.8 466.4 353Z" fill-rule="evenodd"/><path d="M442.1 350.8C443.3 347.7 443 342.7 441.4 338.7C439.1 333.5 435.3 331.3 430.8 328.5C427.9 333.7 428.7 342.4 435.2 347.6C437.1 349.2 439.4 350.5 442.1 350.8Z" fill-rule="evenodd"/><path d="M336.7 298.3C327.1 306.8 325.2 314.1 331.2 323.5C339.5 317.1 341.9 305.5 336.7 298.3Z" fill-rule="evenodd"/><path d="M353.5 308.3C344.9 316.5 343.6 324.9 351 333.8C358.5 325.9 359.3 317.3 353.5 308.3Z" fill-rule="evenodd"/><path d="M417.9 350.6C420.1 347.5 420.4 342.9 419.5 338.8C418.2 333 415 330.6 410.3 326.7C403.5 338.7 410 345 417.9 350.6Z" fill-rule="evenodd"/><path d="M371.4 316.5C363.7 324.1 364 333.7 372.3 341.8C378.8 333.4 378.2 325.4 371.4 316.5Z" fill-rule="evenodd"/><path d="M465.8 349.2L465.9 343.3C464.4 335.9 459.6 330.8 451.7 328.6C449.8 336.8 453.1 347.3 465.8 349.2Z" fill-rule="evenodd"/><path d="M394 346.8C395.6 346.3 394 347.4 395.4 346C399.8 341.3 398.3 330.3 390.5 322.9C385.8 327.1 383.4 340 394 346.8Z" fill-rule="evenodd"/><path d="M83.1 354.1C94.7 354.5 104.8 367.3 104.1 374C98.8 374.1 92.1 370.8 88.5 367.4C84.1 363.2 83.3 357.9 83.1 354.1Z" fill-rule="evenodd"/><path d="M59.2 354.4C64.8 357 70.3 359.5 73.8 364.5C76.6 368.6 77.9 373.6 77 376.8C71.1 374.6 65.8 373.1 61.9 367.7C59.3 364.2 57.7 358.4 59.2 354.4Z" fill-rule="evenodd"/><path d="M106.5 351.1C116.9 349.5 128.8 360.6 130.4 368.6C126.7 369.4 119.5 367.6 114.7 364.2C109.2 360.3 107.8 354.7 106.5 351.1Z" fill-rule="evenodd"/><path d="M171.7 326.5C179 324.2 195 326.2 200.3 336.9C191.2 339.8 179.2 338.4 171.7 326.5Z" fill-rule="evenodd"/><path d="M151.9 336.5C163.6 337.1 170.4 337.5 179.1 349.7C170.8 351.7 161.8 350.4 155.6 343.3L152.3 338.6C151.3 336 151.9 338.2 151.9 336.5Z" fill-rule="evenodd"/><path d="M129.9 345.2C133.3 344.6 140.6 346.2 144.9 348.5C150.8 351.7 153.8 356.5 155.7 360.5C146.3 363 131.9 355.5 129.9 345.2Z" fill-rule="evenodd"/><path d="M34.3 353C34.6 353.1 34.4 352.9 36.1 353.6C37.3 354.1 36.4 353.6 37.8 354.4C39.1 355.2 40.8 356.4 42.1 357.3C48.6 362.4 52 370.8 49.6 376.6C35.9 369.2 32 363.8 34.3 353Z" fill-rule="evenodd"/><path d="M58.6 350.8C57.4 347.7 57.6 342.7 59.3 338.7C61.6 333.5 65.4 331.3 69.9 328.5C72.8 333.7 72 342.4 65.5 347.6C63.6 349.2 61.3 350.5 58.6 350.8Z" fill-rule="evenodd"/><path d="M163.9 298.3C173.6 306.8 175.5 314.1 169.5 323.5C161.2 317.1 158.8 305.5 163.9 298.3Z" fill-rule="evenodd"/><path d="M147.2 308.3C155.8 316.5 157.1 324.9 149.6 333.8C142.1 325.9 141.4 317.3 147.2 308.3Z" fill-rule="evenodd"/><path d="M82.8 350.6C80.5 347.5 80.3 342.9 81.2 338.8C82.5 333 85.6 330.6 90.4 326.7C97.1 338.7 90.7 345 82.8 350.6Z" fill-rule="evenodd"/><path d="M129.2 316.5C136.9 324.1 136.7 333.7 128.4 341.8C121.9 333.4 122.5 325.4 129.2 316.5Z" fill-rule="evenodd"/><path d="M34.8 349.2L34.8 343.3C36.2 335.9 41.1 330.8 49 328.6C50.9 336.8 47.5 347.3 34.8 349.2Z" fill-rule="evenodd"/><path d="M106.7 346.8C105 346.3 106.7 347.4 105.3 346C100.9 341.3 102.4 330.3 110.2 322.9C114.9 327.1 117.3 340 106.7 346.8Z" fill-rule="evenodd"/><path d="M246.8 361.2C246 364.9 248 369.4 252 370.2C255.9 371.2 259.5 368.2 260 364.6C260.3 357.6 258 350.5 254 344.7C249.2 348.8 247.4 355.2 246.8 361.2Z" fill-rule="evenodd"/><path d="M261.1 342C262 347.4 264.4 352.6 267.8 357C269.5 358.8 271.5 361.3 274.4 361.1C280.3 362.7 283.8 354.2 279.7 350.5C275.2 345.3 268.1 341.9 261.1 342Z" fill-rule="evenodd"/><path d="M224.6 358.3C228 359.8 231.9 362.5 235.7 360.3C241.4 355.9 244.3 348.8 245.9 342C236.5 342.1 224.8 347.8 224.6 358.3Z" fill-rule="evenodd"/><path d="M264.5 334C270.3 338.3 277.7 340.8 284.9 340.1C288.5 339.8 290.9 336.2 290.6 332.9C290.1 330.7 288.2 329.1 286.6 327.6C278.8 326 270.4 328.9 264.5 334Z" fill-rule="evenodd"/><path d="M252.9 327C248.9 327.6 245.4 332 247.8 336.1C249.6 341.4 258.8 340.6 259.6 335C261.3 330.6 257 326.8 252.9 327Z" fill-rule="evenodd"/><path d="M217.9 329.7C214.6 333.3 217.2 339.6 222 340.2C229.3 340.8 236.6 338.1 242.5 334C238.9 331.2 234.9 328.8 230.4 327.9C226.3 326.9 220.9 326 217.9 329.7Z" fill-rule="evenodd"/><path d="M273.2 306.4C271.2 306.8 269.3 308.1 268.1 309.8C265 314.4 261.6 319.5 261.1 325.2C265.2 326.7 269.5 324.1 273 322.2C277.2 319.7 283.3 316 281.1 310.2C280.3 306.9 276.4 305 273.2 306.4Z" fill-rule="evenodd"/><path d="M229.2 306.5C224.8 308.1 224.1 314.9 227.8 317.6C232.6 322.2 239 325.6 245.8 325.9C244.9 318.9 241.4 312.5 236.6 307.4C234.6 305.9 231.6 305.8 229.2 306.5Z" fill-rule="evenodd"/><path d="M246.8 303.1C246.9 310.1 248.5 317.7 253.6 322.9C257 318 259.6 312.4 260.2 306.4C260.8 303.4 259.7 300.3 257.2 298.5C253.4 295.3 247.1 298.2 246.8 303.1Z" fill-rule="evenodd"/><path d="M489.4 80.3C491.9 80.3 494 82.9 494 86.2C494 89.5 491.9 92.1 489.4 92.1C486.8 92.1 484.8 89.5 484.8 86.2C484.8 82.9 486.8 80.3 489.4 80.3Z" fill-rule="evenodd"/><path d="M489.4 113.8C491.9 113.8 494 116.4 494 119.7C494 122.9 491.9 125.6 489.4 125.6C486.8 125.6 484.8 122.9 484.8 119.7C484.8 116.4 486.8 113.8 489.4 113.8Z" fill-rule="evenodd"/><path d="M489.4 147.3C491.9 147.3 494 149.9 494 153.2C494 156.4 491.9 159.1 489.4 159.1C486.8 159.1 484.8 156.4 484.8 153.2C484.8 149.9 486.8 147.3 489.4 147.3Z" fill-rule="evenodd"/><path d="M489.4 180.7C491.9 180.7 494 183.4 494 186.6C494 189.9 491.9 192.5 489.4 192.5C486.8 192.5 484.8 189.9 484.8 186.6C484.8 183.4 486.8 180.7 489.4 180.7Z" fill-rule="evenodd"/><path d="M489.4 214.2C491.9 214.2 494 216.9 494 220.1C494 223.4 491.9 226 489.4 226C486.8 226 484.8 223.4 484.8 220.1C484.8 216.9 486.8 214.2 489.4 214.2Z" fill-rule="evenodd"/><path d="M489.4 250.7C491.9 250.7 494 253.3 494 256.6C494 259.9 491.9 262.5 489.4 262.5C486.8 262.5 484.8 259.9 484.8 256.6C484.8 253.3 486.8 250.7 489.4 250.7Z" fill-rule="evenodd"/><path d="M489.4 280.8C491.9 280.8 494 283.4 494 286.7C494 289.9 491.9 292.6 489.4 292.6C486.8 292.6 484.8 289.9 484.8 286.7C484.8 283.4 486.8 280.8 489.4 280.8Z" fill-rule="evenodd"/><path d="M489.4 317.4C491.9 317.4 494 320.1 494 323.3C494 326.6 491.9 329.2 489.4 329.2C486.8 329.2 484.8 326.6 484.8 323.3C484.8 320.1 486.8 317.4 489.4 317.4Z" fill-rule="evenodd"/><path d="M411.1 266.3C411.8 265 414.7 263.4 416.1 262.7C418.1 261.7 420.3 260.9 422.7 260.3C432.5 258 441.6 260.2 452.3 254.2C454.4 253 455.7 252 457.4 250.6C459.7 248.7 460.9 246.6 461.6 246C461.5 247 459.5 250.9 458.9 251.9C455.5 257.7 449.9 261.6 443.1 262.9C439 263.7 430.7 263.3 426.1 263.4C421.2 263.4 417.1 263.8 412.6 265.7C412.3 265.8 411.3 266.3 411.1 266.3Z" fill-rule="evenodd"/><path d="M439.8 311C440.4 310.9 440.9 310.8 441.5 310.5C442.1 310.3 442.6 310 443.1 309.6C443.4 309.4 444 308.8 444.2 308.5L443.7 308.7C442.9 309 442.4 309.1 441.6 309.2C441.2 309.3 440.1 309.3 439.8 309.2C439.7 309.2 439.8 309.2 439.6 309.2L439.1 309.2C438.9 309.1 438.7 309.1 438.5 309.1C438.3 309 438.1 309 437.9 308.9C434.1 309.2 424 305.1 421.2 301.2C420.8 300.9 420.4 300.6 420.1 300.3C419.9 300.2 419.7 300.1 419.6 299.9C419.4 299.8 419.1 299.6 418.9 299.6C419.1 299.8 419.3 299.9 419.5 300.1L421 301.9C424.1 305.4 430.8 309 435.1 310.4C435.9 310.6 435.9 310.7 437 310.9C437.8 311.1 438.8 311.2 439.8 311Z" fill-rule="evenodd"/><path d="M406.3 260.8C407.3 261.8 408.4 263.1 408.9 263.7C408.6 261.3 409.1 260.2 411 259C413.7 257.3 419.4 256.7 422.8 255.8C423.5 255.7 424 255.5 424.6 255.3C425 254.5 426.1 253.2 427.1 251.2C427.8 249.8 428.7 246.9 426.7 246.2C426.3 246.5 426 247 425.7 247.3C425.2 247.7 424.7 247.9 424.5 248.3C424.5 247.7 427.3 242.2 425.7 239.5C425.2 240.3 424.6 242 424.1 242.9C421.1 248.2 416.3 252.4 410.8 256C409.2 257 406.4 258.4 406.3 260.8Z" fill-rule="evenodd"/><path d="M420.1 321.2C422.6 321.7 425.2 321.9 427.9 321.9C434.1 321.9 440 320.7 445.4 318.5L445.4 313.6C443.4 314.1 441.9 313.5 440 313.1C441.8 317 438.7 318.1 434.9 317C434.4 317.5 434.1 319.5 430.9 318.9C429 318.6 427.8 317.8 426.7 316.9C426.8 319.4 424.6 320.3 422.1 319.2C420.9 318.7 418.5 316.7 417.9 315.9C418.1 316.6 420.2 319.2 420.1 321.2M450.7 315.9C456.8 312.4 458.6 312.2 459.2 303.9C459.4 302.3 426.8 297.7 431 296.8C443.8 294.1 455.3 281.2 454.8 276.1C462 271.3 458.2 267.6 461.5 263.1C471.9 254.9 472.9 245.2 465.7 239.6C465.5 240 465.4 240.4 465.2 240.8C464.9 241.6 464.3 242.5 464.1 243.2C465.9 244.2 467.2 245.3 467.7 247.4C468.2 249.7 467.4 251.8 466.5 253.6C464.8 257.1 461.4 258.9 458.2 261C460.4 266.4 458.1 270.1 453.3 272.9C451.9 273.7 451.9 273.4 451.7 275.1C450.8 280.9 446.4 284.8 440.8 287.3C439 288.1 436.9 288.8 434.7 289.2C433.5 289.4 432.3 289.5 430.9 289.5C430.1 289.6 427.6 289.3 427.2 289.4C430.4 291.6 430.3 296.3 425 297.4C422.9 297.8 422.2 297.4 420.3 297.1C422.2 300.6 431 303.4 435.9 304.8C440.5 306.2 445.5 307.6 450.4 308.4C451.9 308.6 454.4 308.9 455.6 309.2C454.4 310.1 452.6 310.3 450.7 310.4L450.7 315.9Z" fill-rule="evenodd"/><path d="M413.3 319.5C413.5 319.6 413.7 319.7 413.9 319.7C413.7 319 413.5 318.3 413.3 317.8C413.3 318.5 413.3 319 413.3 319.5Z" fill-rule="evenodd"/><path d="M379.7 270.7L379.7 271.2C379.6 275.1 381.3 281.4 384.2 288.1L384.2 287.7L386.6 287.7C386.5 286.6 386.5 285.5 386.6 284.3C386.8 281.4 387.6 277 386.8 274.2C386.4 272.9 385.2 271.9 384.1 271.3C382.5 270.4 381.4 270.6 379.7 270.7M389.5 298.2C395 307.1 402.3 315.2 410.8 318.6C410.7 318.2 410.6 317.7 410.4 317.2C409.7 314.8 407.4 311.7 405.9 310.3C400.2 304.9 393.4 301.5 389.5 296L389.5 298.2Z" fill-rule="evenodd"/><path d="M423.7 220.7C417.5 234 412.6 255.6 399 253.7C384.2 251.7 381.7 259.3 379.8 267.1C380.4 266.3 381 266.7 381.9 264.7C382.9 262.3 383.6 260.6 385.5 259.2C389.6 256.3 395.2 257.7 399.1 260.9C399.5 258.7 400.3 258.3 402.2 257C407.5 253.3 411.6 251.2 416.1 245.7C421.3 239.3 423 229.3 423.7 220.7Z" fill-rule="evenodd"/><path d="M427.9 220.5C427.3 220.5 426.7 220.5 426.2 220.5C427.5 223.9 428.8 228.4 429.1 229.7C430 233.5 429.4 235.9 429.2 239.5C429.9 240 431.5 240.2 432.1 242C433.2 245.6 430 250.5 428.2 253.5C428.1 253.8 427.9 254.1 427.8 254.3C428.4 254.1 429 253.9 429.6 253.7L435.8 251C443.4 247.4 450.4 242 455.6 236C456.9 234.7 457.9 233.5 458.9 232.3C453.2 227.4 433.9 258.9 435.5 236.5C435.8 232.9 431.8 220.5 427.9 220.5Z" fill-rule="evenodd"/><path d="M431.6 314.5C432.2 314.4 432.7 314.3 433.2 314.1C433.8 313.8 434.4 313.6 434.9 313.2C435.2 312.9 435.8 312.4 435.9 312.1L435.4 312.3C434.7 312.6 434.1 312.7 433.4 312.8C433 312.8 431.9 312.9 431.6 312.8C431.4 312.8 431.5 312.8 431.4 312.8L430.9 312.7C430.7 312.7 430.5 312.7 430.3 312.6C430.1 312.6 429.8 312.5 429.6 312.5C425.8 312.8 418 306.3 415.1 302.4C414.8 302.1 414.4 301.8 414 301.5C413.8 301.4 413.7 301.3 413.5 301.1C413.3 301 413.1 300.8 412.9 300.8C413 301 413.2 301.2 413.4 301.4L415 303.1C418 306.7 422.6 312.6 426.8 313.9C427.7 314.2 427.7 314.2 428.8 314.4C429.6 314.6 430.6 314.7 431.6 314.5Z" fill-rule="evenodd"/><path d="M415.3 312.6C415.9 312.7 416.4 312.7 417 312.7C417.7 312.6 418.3 312.5 418.9 312.2C419.2 312.1 419.9 311.7 420.2 311.5L419.6 311.5C418.8 311.6 418.2 311.6 417.5 311.4C417.1 311.4 416 311.1 415.8 310.9C415.6 310.9 415.7 310.9 415.6 310.9L415.1 310.7C414.9 310.6 414.7 310.5 414.6 310.4C414.4 310.3 414.2 310.2 414 310.1C407.7 308.9 390.6 298.6 390.9 289.8C390.8 289.6 391.5 288.7 390.6 288.3C390.7 288.6 390.3 288.9 390.4 289.2C387.3 295 403.1 306.6 410.9 310.7C411.7 311.2 411.7 311.3 412.6 311.8C413.4 312.2 414.3 312.5 415.3 312.6Z" fill-rule="evenodd"/><path d="M411 275.7C411.8 274.5 414.4 273.3 415.6 272.8C417.4 272.1 419.3 271.7 421.2 271.4C429.4 270.5 436.3 273.9 445.8 269.4C447.7 268.6 448.8 267.8 450.5 266.6C452.6 265.1 453.9 263.2 454.6 262.6C454.3 263.6 452 267.2 451.4 268.1C447.7 273.3 442.6 276.4 437 276.7C433.6 277 427.1 275.5 423.5 274.9C419.6 274.2 416.2 274.1 412.3 275.3C412 275.4 411.1 275.8 411 275.7Z" fill-rule="evenodd"/><path d="M410.8 278.3C411.6 277.3 413.7 276.9 414.6 276.7C416 276.5 417.5 276.5 418.9 276.8C424.9 278 429.1 283.1 436.7 281.3C438.2 280.9 439.2 280.5 440.6 279.8C442.4 278.8 443.6 277.3 444.2 277C443.9 277.9 441.6 280.8 440.9 281.5C437.3 285.5 433.1 287.1 429.1 286C426.6 285.4 422.3 282.3 419.8 280.7C417.2 279.1 414.8 278.1 411.8 278.2C411.6 278.2 410.9 278.4 410.8 278.3Z" fill-rule="evenodd"/><path d="M388.6 262.9C387.9 262.9 387.4 263.3 387.4 263.8C387.4 264.3 387.9 264.7 388.6 264.7C389.3 264.7 389.9 264.3 389.9 263.8C389.9 263.3 389.3 262.9 388.6 262.9Z" fill-rule="evenodd"/><path d="M69.6 131.5C69.2 130.6 68.8 129.7 68.6 128.8C65.5 130.3 62.2 130.3 59 129C57.1 128.3 55.4 127.2 53.7 126.2C51.1 124.9 49.7 122.2 49.8 119.4C49.9 115.6 50.8 112 52.6 108.7C48.4 107.5 45.3 104.1 43.9 100C42.4 95.5 42.8 90.3 45.7 86.4C47.3 84 49.6 82.2 52.4 81.4C52.3 81.3 52.3 81.2 52.2 81.1C49.1 82.6 46 84.2 42.9 85.8L42.9 145.7C51.7 140.7 60.6 136 69.6 131.5M112.6 55.4C108.6 56.8 104.6 58.3 100.7 59.8C102 60 103.3 60.5 104.5 61.1C107.6 62.9 109.7 65.9 110.6 69.4C111.7 73.5 111.3 77.6 109.2 81.3C109.4 81.4 109.6 81.4 109.7 81.5C111.2 81.8 112.3 82.5 113.3 83.6C115.8 86.3 117.7 88.8 118.5 92.5C118.5 92.8 118.6 93.1 118.6 93.4C118.9 96.9 118 100.6 116 103.5C114.4 105.9 112 107.8 109.2 108.5C110.1 110 110.6 111.7 110.9 113.5C121.3 109.5 131.9 106 142.6 102.8C139 96.8 136.3 90.4 133.8 83.9C132.2 79.8 130.7 75.7 129.5 71.5C128.2 67.6 126.9 63.6 126.5 59.4C126.4 57.8 127.5 56.7 128.9 56.1C130.2 55.5 131.9 55.2 133.4 55.1C135.8 55 140.3 55.4 141.5 57.9C143.2 61.8 144.2 65.9 145.7 69.8C146.1 71 146.5 72.1 146.9 73.2C147 73.2 147 73.2 147.1 73.2C147.2 73.2 147.4 73.1 147.5 73.1C147.6 73.1 147.6 73.1 147.6 73.1C148.3 72.9 149.1 72.7 149.8 72.5C150.5 72.3 151.2 72.1 151.9 71.9C152.7 71.6 153.4 71.3 154.1 70.9C158.8 68.7 162.3 64.4 162.8 59.1C163.3 53.7 160.5 49.2 156 46.6C154.7 45.9 153.4 45.4 151.9 45.2C151.9 45.2 151.9 45.2 151.8 45.2C151.7 45.1 151.6 45.1 151.4 45.1C151.1 45.1 150.8 45.1 150.4 45C150.2 45 149.9 45 149.6 45C149.3 45 149 45 148.7 45C148.7 45 148.7 45 148.7 45C148.5 45 148.2 45 148 45.1C147.9 45.1 147.8 45.1 147.6 45.1C147.6 45.1 147.5 45.1 147.5 45.1C147.5 45.1 147.5 45.1 147.5 45.1C147.3 45.1 147 45.1 146.8 45.1C146.1 45.2 145.3 45.3 144.6 45.5C144.3 45.5 144 45.6 143.7 45.6C140.6 46.5 137.5 47.3 134.5 48.3C130.4 49.9 126.7 52.3 123.5 55.3C122.1 56.6 119.4 56.8 117.6 56.7C116.1 56.7 113.9 56.3 112.6 55.4M199.2 34.1C188 35.7 176.9 37.7 165.8 40.1C167.1 40.7 168.4 41.4 169.6 42.2C174.8 45.8 179 52.3 178.8 58.8C178.6 64.7 175.5 69.6 171 73.3C174.7 74.3 178.3 75.9 181.1 78.4C184.5 81.2 186.5 85.1 186.3 89.6C186.3 90.7 186.2 91.7 185.9 92.8C189.1 92.2 192.3 91.7 195.5 91.3C195.5 91.1 195.4 90.9 195.4 90.8C194.4 90.4 193.3 89.9 192.7 89C192.1 88 192.2 86.8 193.2 86C193.5 85.7 194 85.5 194.5 85.3C193.4 78.5 192.9 71.7 193 64.8C193.1 59.8 193.5 54.7 194.2 49.7C194.8 45.1 195.6 40.7 197.7 36.5C198.1 35.7 198.6 34.9 199.2 34.1M221.5 31.7C223.4 33 225 34.7 226.4 36.5C232.6 44.5 234.7 53.8 236.9 63.4C238.2 68.7 239.4 73.9 240.6 79.1C241.2 81.9 242 84.6 242.6 87.3C246.2 87.3 249.7 87.3 253.2 87.3C251.8 80.6 251.5 73.8 251.3 67C251.2 62.7 251.2 58.4 251.4 54.2C251.7 50 251.7 45.9 252.8 41.8C253.7 38.8 258.2 39 260.7 39.4C263 39.9 267.4 41.3 267.6 44.1C267.9 48.2 267.5 52.4 267.5 56.5C267.5 57.6 267.5 58.8 267.6 59.9C267.6 59.9 267.6 59.9 267.6 59.9C267.8 59.9 267.9 59.9 268.1 59.9C268.1 59.9 268.2 59.9 268.2 60C268.9 60 269.7 60 270.4 59.9C271.2 59.9 272 59.9 272.7 59.8C273.5 59.7 274.3 59.5 275.1 59.4C280.4 58.3 285.4 54.9 287.7 49.9C289.9 45.2 289.2 40.2 285.5 36.5C284.5 35.5 283.4 34.8 282.2 34.2C282.2 34.2 282.1 34.2 282.1 34.2C282 34.1 281.8 34.1 281.7 34C281.4 33.9 281.1 33.8 280.8 33.7C280.6 33.7 280.3 33.6 280.1 33.5C279.8 33.4 279.5 33.4 279.2 33.3C279.2 33.3 279.1 33.3 279.1 33.3C278.9 33.3 278.7 33.2 278.5 33.2C278.4 33.2 278.2 33.1 278.1 33.1C278.1 33.1 278 33.1 278 33.1C278 33.1 278 33.1 278 33.1C277.7 33.1 277.5 33 277.3 33C276.6 32.9 275.8 32.8 275.1 32.8C274.5 32.7 274 32.7 273.5 32.7C273.4 32.7 273.4 32.7 273.4 32.7C273.4 32.7 273.3 32.7 273.3 32.7C273.1 32.7 273 32.7 272.9 32.7C272.6 32.7 272.4 32.7 272.1 32.7C264.9 32.5 257.8 34 251.4 37.3C249.2 38.5 245.5 37.6 243.4 36.6C242.3 36.1 241 35.4 240.5 34.3C239.8 32.8 240.7 31.5 242 30.8C242.2 30.7 242.5 30.6 242.7 30.5C235.6 30.7 228.5 31.1 221.5 31.7M297.3 32.8C298.3 33.6 299.1 34.5 299.9 35.5C303.9 40.4 305.4 47.6 303.1 53.6C300.8 59.2 296.1 63.2 290.7 65.7C293.8 67.4 296.6 69.8 298.5 72.8C300.9 76.6 301.4 80.8 299.7 84.9C298.9 86.8 297.8 88.6 296.4 90.2C309.1 91.8 321.8 94 334.3 96.8C340.9 93.4 345.6 86.5 349.4 80.1C347.2 81.8 344.8 83.4 342.3 84.8C337.9 87.2 333.1 89 328.1 88.9C322 88.7 315.1 85.7 312.3 80C308 71.4 312.6 61.3 316.7 53.5C319 49.3 321.6 45.2 324.5 41.4C325.5 40 326.5 38.7 327.6 37.4C317.6 35.4 307.5 33.9 297.3 32.8M365.6 46.5C358.7 44.5 351.7 42.6 344.6 41C342.9 43.5 340.9 45.8 339.2 48.3C336.7 52 334.3 55.9 332.2 59.9C329.1 65.9 325.9 73.1 327.2 79.9C328.4 79.7 329.6 79.4 330.8 79C334.5 77.7 337.7 75.6 340.8 73.3C349.6 66.8 357.7 59 364.1 50.2C364.5 49.3 364.8 48.5 365.2 47.6C365.3 47.3 365.5 46.9 365.6 46.5M352.9 101.4C366.5 105.2 379.9 109.6 393.1 114.6C393.6 112.5 394.3 110.6 395.3 108.7C391.1 107.6 388.1 104.1 386.7 100C385.2 95.6 385.6 90.4 388.4 86.5C390.1 84 392.3 82.3 395.1 81.4C391.4 74.6 393.2 64.2 400.7 60.8C400.9 60.7 401 60.7 401.2 60.6C402.3 60.2 403.4 60 404.6 59.8C396.8 56.8 389 53.9 381 51.3C380.6 52.5 380.2 53.6 379.8 54.8C378.6 58.4 377.1 61.9 375.6 65.5C372.5 72.8 369 80 364.8 86.8C361.5 92.2 357.9 97.5 352.9 101.4M456.1 83.7C457.7 85.4 459 87 460 88.9L460 85.8C458.7 85.1 457.4 84.4 456.1 83.7M460 101.4C459.6 102.1 459.2 102.8 458.8 103.5C457.1 106 454.8 107.8 451.9 108.6C453.1 110.6 453.7 112.8 453.9 115.1C454 117.7 453.5 120.3 452.4 122.6C451.4 125 449.7 127.1 447.5 128.6C445.3 130 442.6 130.5 440 130C438.5 129.9 437.1 129.5 435.7 128.8C435.4 130 434.9 131.2 434.3 132.4C443 136.6 451.5 141 460 145.7L460 101.4M277.4 88.3C279.9 87 282.3 85.1 283.7 82.7C285.1 80.5 285.7 78 285 75.4C284.5 73.6 283.3 72.3 281.8 71.1C281.8 71.1 281.8 71.1 281.8 71.1C281.7 71 281.5 70.9 281.4 70.8C281.2 70.7 281 70.6 280.8 70.5C280.8 70.4 280.7 70.4 280.7 70.4C280 70 279.3 69.8 278.6 69.6C276.7 69.2 274.1 69.4 272.2 69.7C271.3 69.9 270.4 70.1 269.5 70.3C269.4 70.3 269.4 70.4 269.3 70.4C269.2 70.4 269.2 70.4 269.1 70.4C269 70.5 268.9 70.5 268.8 70.5C268.7 70.6 268.7 70.6 268.7 70.6C268.4 70.7 268.2 70.7 268 70.8C268.4 76.5 269.3 82.1 269.9 87.8C272.4 88 274.9 88.1 277.4 88.3M225.6 88.1C225 85.1 224.5 82.1 223.9 79.1C223.9 78.8 223.8 78.5 223.8 78.2L217.6 78.2C215.1 78.5 212.6 78.6 210.1 78.8C208.5 79 206.8 79.1 205.1 79.3C205.1 79.7 205.1 80.1 205.1 80.5C205.1 81.9 205.1 83.3 205.1 84.7C205.1 86.1 205.2 87.6 205.2 89C205.2 89.3 205.2 89.6 205.2 90C212 89.2 218.8 88.5 225.6 88.1M211.5 36.7C208.8 39.3 207.5 43 206.6 46.6C204.5 54.7 204.1 63.2 204.1 71.6C204.3 71.7 204.4 72 204.4 72.2C204.5 72.3 204.5 72.4 204.5 72.6C205.1 72.5 205.7 72.4 206.2 72.4C208.2 72.1 210.2 71.8 212.1 71.5C213.8 71.3 215.5 71.2 217.1 71.2C218.1 71.2 219.2 71.3 220.1 71.5L222.5 71.5C222 69.1 221.5 66.6 221 64.2C219.5 56.1 218.4 47.8 214.2 40.6C213.4 39.2 212.5 37.9 211.5 36.7M151.1 83.5C153.3 88.6 156 93.5 158.4 98.6C161.5 97.8 164.7 97.1 167.9 96.3C170.7 92.8 171.7 88 169 84.1C167.8 82.5 166.2 81.5 164.3 80.7C164.3 80.7 164.3 80.7 164.3 80.7C164.2 80.6 164 80.5 163.8 80.5C163.6 80.4 163.3 80.3 163.1 80.3C163.1 80.3 163.1 80.3 163.1 80.3C162.3 80 161.5 79.9 160.7 80C158.7 80 156.4 80.8 154.6 81.5C153.8 81.9 153 82.3 152.2 82.7C152.2 82.8 152.1 82.8 152.1 82.8C152 82.9 152 82.9 151.9 82.9C151.8 83 151.7 83 151.6 83.1C151.6 83.1 151.6 83.2 151.5 83.2C151.4 83.3 151.2 83.4 151.1 83.5Z" fill-rule="evenodd"/><path d="M93.8 266.3C93.1 265 90.1 263.4 88.7 262.7C86.7 261.7 84.5 260.9 82.1 260.3C72.3 258 63.2 260.2 52.5 254.2C50.4 253 49.2 252 47.4 250.6C45.1 248.7 44 246.6 43.3 246C43.3 247 45.4 250.9 45.9 251.9C49.4 257.7 55 261.6 61.7 262.9C65.9 263.7 74.1 263.3 78.7 263.4C83.6 263.4 87.8 263.8 92.3 265.7C92.6 265.8 93.6 266.3 93.8 266.3Z" fill-rule="evenodd"/><path d="M65 311C64.5 310.9 63.9 310.8 63.4 310.5C62.8 310.3 62.2 310 61.7 309.6C61.4 309.4 60.8 308.8 60.7 308.5L61.2 308.7C61.9 309 62.5 309.1 63.2 309.2C63.6 309.3 64.7 309.3 65 309.2C65.2 309.2 65.1 309.2 65.2 309.2L65.7 309.2C65.9 309.1 66.1 309.1 66.3 309.1C66.5 309 66.8 309 67 308.9C70.8 309.2 80.8 305.1 83.7 301.2C84 300.9 84.4 300.6 84.7 300.3C84.9 300.2 85.1 300.1 85.3 299.9C85.5 299.8 85.7 299.6 85.9 299.6C85.7 299.8 85.6 299.9 85.4 300.1L83.8 301.9C80.8 305.4 74 309 69.8 310.4C68.9 310.6 68.9 310.7 67.8 310.9C67 311.1 66 311.2 65 311Z" fill-rule="evenodd"/><path d="M98.5 260.8C97.6 261.8 96.4 263.1 96 263.7C96.2 261.3 95.8 260.2 93.9 259C91.1 257.3 85.5 256.7 82 255.8C81.4 255.7 80.8 255.5 80.3 255.3C79.8 254.5 78.7 253.2 77.7 251.2C77.1 249.8 76.1 246.9 78.1 246.2C78.6 246.5 78.9 247 79.2 247.3C79.6 247.7 80.1 247.9 80.3 248.3C80.3 247.7 77.5 242.2 79.1 239.5C79.7 240.3 80.2 242 80.7 242.9C83.7 248.2 88.6 252.4 94.1 256C95.7 257 98.4 258.4 98.5 260.8Z" fill-rule="evenodd"/><path d="M84.8 321.2C82.2 321.7 79.6 321.9 76.9 321.9C70.8 321.9 64.9 320.7 59.4 318.5L59.4 313.6C61.5 314.1 62.9 313.5 64.8 313.1C63 317 66.2 318.1 70 317C70.5 317.5 70.8 319.5 74 318.9C75.8 318.6 77 317.8 78.1 316.9C78 319.4 80.2 320.3 82.8 319.2C83.9 318.7 86.4 316.7 87 315.9C86.7 316.6 84.6 319.2 84.8 321.2M54.1 315.9C48 312.4 46.2 312.2 45.6 303.9C45.5 302.3 78.1 297.7 73.8 296.8C61 294.1 49.6 281.2 50 276.1C42.8 271.3 46.6 267.6 43.3 263.1C32.9 254.9 31.9 245.2 39.2 239.6C39.3 240 39.5 240.4 39.6 240.8C40 241.6 40.5 242.5 40.7 243.2C39 244.2 37.6 245.3 37.1 247.4C36.6 249.7 37.4 251.8 38.3 253.6C40.1 257.1 43.4 258.9 46.6 261C44.4 266.4 46.8 270.1 51.5 272.9C52.9 273.7 52.9 273.4 53.2 275.1C54 280.9 58.4 284.8 64.1 287.3C65.8 288.1 67.9 288.8 70.1 289.2C71.4 289.4 72.6 289.5 73.9 289.5C74.8 289.6 77.2 289.3 77.7 289.4C74.4 291.6 74.5 296.3 79.9 297.4C81.9 297.8 82.7 297.4 84.5 297.1C82.6 300.6 73.8 303.4 68.9 304.8C64.3 306.2 59.4 307.6 54.4 308.4C53 308.6 50.4 308.9 49.2 309.2C50.5 310.1 52.3 310.3 54.1 310.4L54.1 315.9Z" fill-rule="evenodd"/><path d="M91.5 319.5C91.3 319.6 91.1 319.7 90.9 319.7C91.2 319 91.4 318.3 91.5 317.8C91.5 318.5 91.5 319 91.5 319.5Z" fill-rule="evenodd"/><path d="M125.2 270.7L125.2 271.2C125.2 275.1 123.6 281.4 120.6 288.1L120.6 287.7L118.3 287.7C118.4 286.6 118.4 285.5 118.3 284.3C118.1 281.4 117.2 277 118 274.2C118.4 272.9 119.6 271.9 120.8 271.3C122.4 270.4 123.5 270.6 125.2 270.7M115.3 298.2C109.9 307.1 102.5 315.2 94 318.6C94.1 318.2 94.3 317.7 94.4 317.2C95.2 314.8 97.4 311.7 98.9 310.3C104.6 304.9 111.5 301.5 115.3 296L115.3 298.2Z" fill-rule="evenodd"/><path d="M81.1 220.7C87.3 234 92.3 255.6 105.8 253.7C120.7 251.7 123.1 259.3 125 267.1C124.4 266.3 123.8 266.7 122.9 264.7C121.9 262.3 121.2 260.6 119.3 259.2C115.3 256.3 109.6 257.7 105.7 260.9C105.3 258.7 104.5 258.3 102.7 257C97.4 253.3 93.2 251.2 88.8 245.7C83.6 239.3 81.9 229.3 81.1 220.7Z" fill-rule="evenodd"/><path d="M76.9 220.5C77.5 220.5 78.1 220.5 78.7 220.5C77.4 223.9 76.1 228.4 75.8 229.7C74.9 233.5 75.5 235.9 75.7 239.5C74.9 240 73.3 240.2 72.8 242C71.7 245.6 74.8 250.5 76.6 253.5C76.7 253.8 76.9 254.1 77.1 254.3C76.5 254.1 75.9 253.9 75.2 253.7L69.1 251C61.5 247.4 54.5 242 49.2 236C48 234.7 46.9 233.5 46 232.3C51.6 227.4 70.9 258.9 69.3 236.5C69 232.9 73.1 220.5 76.9 220.5Z" fill-rule="evenodd"/><path d="M73.2 314.5C72.7 314.4 72.1 314.3 71.6 314.1C71 313.8 70.4 313.6 70 313.2C69.6 312.9 69.1 312.4 68.9 312.1L69.4 312.3C70.1 312.6 70.7 312.7 71.4 312.8C71.9 312.8 73 312.9 73.3 312.8C73.4 312.8 73.3 312.8 73.4 312.8L73.9 312.7C74.2 312.7 74.4 312.7 74.6 312.6C74.8 312.6 75 312.5 75.2 312.5C79 312.8 86.9 306.3 89.7 302.4C90.1 302.1 90.4 301.8 90.8 301.5C91 301.4 91.1 301.3 91.3 301.1C91.5 301 91.8 300.8 92 300.8C91.8 301 91.6 301.2 91.4 301.4L89.9 303.1C86.8 306.7 82.3 312.6 78 313.9C77.1 314.2 77.1 314.2 76.1 314.4C75.3 314.6 74.2 314.7 73.2 314.5Z" fill-rule="evenodd"/><path d="M89.5 312.6C89 312.7 88.4 312.7 87.8 312.7C87.2 312.6 86.6 312.5 86 312.2C85.6 312.1 84.9 311.7 84.7 311.5L85.2 311.5C86 311.6 86.6 311.6 87.3 311.4C87.7 311.4 88.8 311.1 89.1 310.9C89.2 310.9 89.1 310.9 89.2 310.9L89.7 310.7C89.9 310.6 90.1 310.5 90.3 310.4C90.5 310.3 90.7 310.2 90.9 310.1C97.1 308.9 114.2 298.6 113.9 289.8C114.1 289.6 113.3 288.7 114.3 288.3C114.2 288.6 114.5 288.9 114.4 289.2C117.5 295 101.8 306.6 93.9 310.7C93.2 311.2 93.2 311.3 92.2 311.8C91.5 312.2 90.5 312.5 89.5 312.6Z" fill-rule="evenodd"/><path d="M93.9 275.7C93.1 274.5 90.5 273.3 89.2 272.8C87.5 272.1 85.6 271.7 83.6 271.4C75.4 270.5 68.6 273.9 59.1 269.4C57.2 268.6 56 267.8 54.4 266.6C52.3 265.1 51 263.2 50.3 262.6C50.5 263.6 52.8 267.2 53.4 268.1C57.1 273.3 62.2 276.4 67.8 276.7C71.3 277 77.7 275.5 81.4 274.9C85.3 274.2 88.7 274.1 92.5 275.3C92.8 275.4 93.7 275.8 93.9 275.7Z" fill-rule="evenodd"/><path d="M94 278.3C93.3 277.3 91.2 276.9 90.2 276.7C88.8 276.5 87.4 276.5 85.9 276.8C79.9 278 75.7 283.1 68.1 281.3C66.6 280.9 65.7 280.5 64.3 279.8C62.5 278.8 61.2 277.3 60.6 277C60.9 277.9 63.3 280.8 63.9 281.5C67.5 285.5 71.7 287.1 75.7 286C78.2 285.4 82.5 282.3 85 280.7C87.7 279.1 90 278.1 93 278.2C93.2 278.2 93.9 278.4 94 278.3Z" fill-rule="evenodd"/><path d="M116.2 262.9C116.9 262.9 117.5 263.3 117.5 263.8C117.5 264.3 116.9 264.7 116.2 264.7C115.5 264.7 115 264.3 115 263.8C115 263.3 115.5 262.9 116.2 262.9Z" fill-rule="evenodd"/><path d="M418.1 123.4C417.4 126.9 419.1 131.1 422.4 131.8C425.6 132.8 428.6 130 429 126.6C429.2 119.9 427.3 113.3 424 107.8C420 111.6 418.6 117.7 418.1 123.4Z" fill-rule="evenodd"/><path d="M429.9 105.2C430.6 110.4 432.6 115.2 435.4 119.4C436.8 121.1 438.4 123.5 440.8 123.3C445.7 124.8 448.6 116.7 445.2 113.3C441.5 108.3 435.7 105.2 429.9 105.2Z" fill-rule="evenodd"/><path d="M399.8 120.6C402.6 122.1 405.8 124.6 408.9 122.6C413.6 118.3 416 111.7 417.4 105.2C409.6 105.3 400 110.7 399.8 120.6Z" fill-rule="evenodd"/><path d="M432.7 97.7C437.4 101.7 443.5 104.2 449.5 103.5C452.5 103.2 454.5 99.8 454.2 96.7C453.8 94.6 452.2 93.1 450.9 91.7C444.4 90.2 437.6 93 432.7 97.7Z" fill-rule="evenodd"/><path d="M423.1 91.1C419.8 91.7 416.9 95.9 418.9 99.7C420.4 104.7 427.9 103.9 428.7 98.7C430.1 94.5 426.5 90.9 423.1 91.1Z" fill-rule="evenodd"/><path d="M394.2 93.7C391.5 97.1 393.7 103 397.6 103.6C403.6 104.1 409.6 101.6 414.6 97.8C411.6 95.1 408.3 92.8 404.6 92C401.2 91 396.7 90.2 394.2 93.7Z" fill-rule="evenodd"/><path d="M439.9 71.7C438.2 72.1 436.7 73.3 435.7 74.9C433.1 79.3 430.3 84 429.9 89.4C433.3 90.9 436.8 88.4 439.7 86.6C443.1 84.2 448.2 80.8 446.4 75.2C445.7 72.2 442.5 70.4 439.9 71.7Z" fill-rule="evenodd"/><path d="M403.6 71.8C400 73.3 399.4 79.7 402.4 82.3C406.4 86.6 411.6 89.8 417.3 90.1C416.5 83.5 413.6 77.5 409.7 72.7C408 71.2 405.5 71.1 403.6 71.8Z" fill-rule="evenodd"/><path d="M418.1 68.6C418.2 75.2 419.4 82.3 423.7 87.2C426.5 82.6 428.7 77.3 429.1 71.7C429.6 68.9 428.7 66 426.7 64.3C423.6 61.2 418.3 64 418.1 68.6Z" fill-rule="evenodd"/><path d="M75.3 123.3C74.6 126.8 76.3 131.1 79.6 131.8C82.8 132.7 85.8 129.9 86.2 126.5C86.5 119.9 84.5 113.2 81.2 107.8C77.3 111.6 75.8 117.7 75.3 123.3Z" fill-rule="evenodd"/><path d="M87.1 105.2C87.8 110.3 89.8 115.2 92.6 119.3C94 121.1 95.7 123.4 98 123.3C102.9 124.7 105.8 116.7 102.4 113.2C98.7 108.3 92.9 105.1 87.1 105.2Z" fill-rule="evenodd"/><path d="M57 120.6C59.8 122 63 124.6 66.2 122.5C70.8 118.3 73.3 111.6 74.6 105.2C66.8 105.3 57.2 110.7 57 120.6Z" fill-rule="evenodd"/><path d="M89.9 97.7C94.7 101.7 100.8 104.1 106.7 103.4C109.7 103.2 111.7 99.7 111.4 96.6C111 94.5 109.4 93 108.1 91.7C101.7 90.2 94.8 92.9 89.9 97.7Z" fill-rule="evenodd"/><path d="M80.4 91C77 91.6 74.1 95.8 76.1 99.7C77.6 104.7 85.2 103.9 85.9 98.6C87.3 94.5 83.7 90.9 80.4 91Z" fill-rule="evenodd"/><path d="M51.5 93.7C48.7 97 50.9 102.9 54.8 103.5C60.8 104.1 66.9 101.5 71.8 97.7C68.8 95.1 65.5 92.8 61.8 91.9C58.4 91 53.9 90.2 51.5 93.7Z" fill-rule="evenodd"/><path d="M97.1 71.6C95.4 72.1 93.9 73.2 92.9 74.8C90.3 79.2 87.5 84 87.1 89.4C90.5 90.8 94 88.4 96.9 86.6C100.3 84.2 105.4 80.7 103.6 75.2C102.9 72.2 99.7 70.4 97.1 71.6Z" fill-rule="evenodd"/><path d="M60.8 71.7C57.2 73.3 56.6 79.6 59.6 82.2C63.6 86.6 68.8 89.8 74.5 90C73.7 83.5 70.8 77.4 66.9 72.6C65.2 71.2 62.7 71.1 60.8 71.7Z" fill-rule="evenodd"/><path d="M75.3 68.5C75.4 75.1 76.7 82.3 80.9 87.2C83.7 82.6 85.9 77.3 86.3 71.6C86.9 68.9 85.9 65.9 83.9 64.2C80.8 61.2 75.6 64 75.3 68.5Z" fill-rule="evenodd"/><path d="M128.8 227.3C131.7 233.3 139.5 237.5 147.1 236.4C156 236.4 162.7 230.6 169 226C174.8 222.1 180.2 215.5 188.6 216.5C193.7 215.7 197.7 219.4 199.2 223.1C199.3 223.6 199.3 224.1 199.2 224.5L199.8 224.5L199.8 235C200.5 234.5 201.1 234 201.6 233.4C207.9 228 207.2 217.7 199.4 213.7C192.2 208.6 181.5 209.6 174.6 214.4C166 219 159.9 226.5 150.7 230.2C145.4 231.5 137.2 230.6 135.3 225.2C133.9 222.5 135.4 220.2 137.2 218L137.2 210.5C130.4 213.4 126.1 220.9 128.8 227.3M141.1 219.5L141.1 219.5L141.1 209.4C142.5 209.2 143.9 209.2 145.4 209.4C148.9 210.2 152.2 212.1 154.4 214.6C155.5 217.8 154.5 222.4 150.2 223.4C145.9 224.7 143 222.3 141.1 219.5M193.2 228.1L193.2 228.1L193.2 237.5C187.9 238.2 182 236.4 179.5 232.2C176.3 227.7 182.9 222.1 188.4 223.8C190.7 224.5 192.1 226.3 193.2 228.1Z" fill-rule="evenodd"/><path d="M378.2 227.3C375.4 233.3 367.5 237.5 359.9 236.4C351 236.4 344.4 230.6 338 226C332.2 222.1 326.8 215.5 318.4 216.5C313.4 215.7 309.3 219.4 307.9 223.1C307.8 223.6 307.8 224.1 307.8 224.5L307.3 224.5L307.3 235C306.6 234.5 306 234 305.4 233.4C299.2 228 299.8 217.7 307.7 213.7C314.8 208.6 325.5 209.6 332.5 214.4C341 219 347.1 226.5 356.3 230.2C361.7 231.5 369.9 230.6 371.8 225.2C373.2 222.5 371.6 220.2 369.8 218L369.8 210.5C376.7 213.4 381 220.9 378.2 227.3M365.9 219.5L365.9 219.5L365.9 209.4C364.6 209.2 363.1 209.2 361.6 209.4C358.1 210.2 354.8 212.1 352.6 214.6C351.5 217.8 352.6 222.4 356.9 223.4C361.1 224.7 364.1 222.3 365.9 219.5M313.8 228.1L313.8 228.1L313.8 237.5C319.2 238.2 325 236.4 327.6 232.2C330.7 227.7 324.1 222.1 318.7 223.8C316.3 224.5 314.9 226.3 313.8 228.1Z" fill-rule="evenodd"/><path d="M241.1 226.8C236 227.8 230.7 234.1 232.9 238.7C236.3 247.2 248.9 250.2 251.8 260.6C257 252 267.1 246.9 270.7 238C273 232.1 264.6 224.7 258.5 226.8C255.8 227.5 254.1 229.9 252 231.6C249.1 228.7 245.7 225 241.1 226.8Z" fill-rule="evenodd"/><path d="M253 201.8C265.6 201.8 276.7 208 283.6 217.5C278.6 213.9 272.3 212.2 266.8 214C261.3 215.5 257.7 220.4 253.4 223.9C247.5 217.9 240.3 210.3 230.9 214.1C227.7 214.7 224.5 216.3 221.7 218.5C228.6 208.4 240.1 201.8 253 201.8M291.2 239.2C291.2 239.8 291.2 240.3 291.2 240.8C291.2 261.5 275.5 278.4 255.7 279.8C266.4 265 283.6 254.9 291.2 239.2M251.6 279.9C231.2 279.1 214.9 261.9 214.9 240.8C214.9 240.7 214.9 240.6 214.9 240.5C222.3 255.6 244 262.3 251.6 279.9Z" fill-rule="evenodd"/><path d="M375.7 144.8C376.9 143.4 378.2 142.8 379.8 142.8C383.5 142.6 386.7 148.8 386.6 155.1C386.8 164.7 381.7 174.2 378.9 174C377.6 174 376.6 173.1 376.6 171C376.6 170.4 376.3 170 375.8 169.6L375.7 169.6L375.7 183.6C377.1 185.7 378.8 187.8 380.8 189.8C383.6 192.6 385.8 194.1 387.3 194.1C388.8 194.1 389.8 193.4 390.2 192.1C390.2 191.9 390.3 191.8 390.3 191.6C390.3 191 389.9 190.4 389.1 189.8C386.2 187.7 383.3 184.4 380.6 180.1C383.3 180.1 385.8 179.5 388 178.3C394.8 174.6 398.2 167.6 398.2 157.3C398.2 150.1 392.9 137.2 382 137.2C379.7 137.2 377.6 137.7 375.7 138.8L375.7 144.8Z" fill-rule="evenodd"/><path d="M362.5 196C365 196 367.3 194.7 367.8 192.6C368.1 190.8 368.4 187.6 368.6 183C368.9 176.4 369.4 167.8 370.6 160.3L370.6 143.6C368.8 146.3 367.3 149.8 366.2 154.2C365.8 150 365.3 145.7 364.7 141.5C364 136.5 361.1 134.8 358.3 134.8C356.8 134.8 355.6 135.2 354.5 136C353.6 136.8 353.1 137.8 353.1 138.9L353.1 139.3C355.2 154.1 356.2 170.8 356.2 189.4C356.2 190.9 356.5 192.2 357.2 193.1C358.4 195 360.2 196 362.5 196Z" fill-rule="evenodd"/><path d="M338 194.6C339.3 194.4 340.5 193.9 341.7 193.4C344.4 192.3 347 190.9 349.4 189.3C350.2 188.9 350.5 188.3 350.5 187.6C350.5 187.1 350.3 186.7 349.9 186.3C349.4 185.7 348.6 185.4 347.8 185.4C347.2 185.4 346.7 185.6 346.2 185.9C342.9 188 340.1 189.1 338 189.3L338 194.6Z" fill-rule="evenodd"/><path d="M338 141.1C340.4 141.6 342.1 142.4 343 143.4C343.6 144.1 344.4 144.4 345.3 144.4C345.8 144.4 346.2 144.3 346.7 144.1C347.5 143.6 347.9 143 347.9 142.2C347.9 141.8 347.8 141.4 347.5 141.1C345.6 138.9 342.6 137.5 338.8 136.9C338.5 136.9 338.3 136.8 338 136.8L338 141.1Z" fill-rule="evenodd"/><path d="M338 164.7C339.5 164.8 340.9 164.9 342.2 165.1L342.5 165.1C343 165.1 343.5 165 343.9 164.7C344.5 164.3 344.8 163.8 344.8 163.1C344.8 162.8 344.7 162.4 344.3 162C343.8 161.3 341.7 160.9 338 160.7L338 164.7Z" fill-rule="evenodd"/><path d="M329.5 164.6C330.6 164.6 331.7 164.6 332.9 164.6L332.9 160.6C332.1 160.6 330.9 160.7 329.5 160.7C329.5 152.3 330.2 145.6 331.4 140.7L332.2 140.7C332.4 140.7 332.7 140.7 332.9 140.7L332.9 136.4C332.3 136.3 331.6 136.3 331 136.3C326.1 136.3 321.2 136.9 316.3 137.9C315.6 138.1 315 138.4 314.7 138.9C314.5 139.3 314.4 139.6 314.4 140C314.4 140.9 314.8 141.5 315.7 141.9C316.1 142.1 316.5 142.2 317 142.2C317.2 142.2 318 142.1 319.2 141.8C318.1 147.7 317.6 153.7 317.6 159.7C317.6 160.2 317.6 161.1 317.6 162.5C317 162.6 316.4 162.9 315.8 163.1C315 163.5 314.6 164.1 314.6 164.9C314.6 165.2 314.7 165.5 314.8 165.8C315.3 166.5 315.9 166.8 316.8 166.8C317.1 166.8 317.4 166.8 317.7 166.7C317.8 166.9 317.8 167.2 317.8 167.5C318.1 174.2 319.2 179.9 320.8 184.7C323.3 191.5 327.2 195 332.9 195.2L332.9 195.2L332.9 186.9C331.7 185.1 330.8 182.4 330.3 178.7C329.9 175.9 329.6 171.2 329.5 164.6Z" fill-rule="evenodd"/><path d="M270.5 184.7C269.8 184.4 269.4 182.8 269.1 180.1C268.9 177.5 268.8 174.5 268.8 171C268.8 166.4 269 160.9 269.3 154.5C269.8 147.1 270.2 141.7 270.5 138.3L270.5 131.6C269.6 129.9 267.6 128.7 265.1 128.7C263.7 128.7 262.5 129 261.4 129.6C260.3 130.2 259.6 131 259.4 132.2C257.7 143.5 256.9 154.1 256.9 163.7C256.9 171.8 257.6 178.3 259.2 183.3C260.9 189.1 263.8 192.1 267.8 192.1C268.8 192.1 269.7 191.9 270.5 191.6L270.5 184.7Z" fill-rule="evenodd"/><path d="M298.9 194.2C301 193.1 302.7 191.4 304 189.2C307.3 183.9 308.9 176.1 308.9 166C308.9 161.1 308.4 155.6 307.3 149.6C306.4 144.3 304.8 139.9 302.6 136.2C302.1 135.4 301.3 135 300.3 135C299.9 135 299.5 135.1 299 135.3C298 135.7 297.6 136.4 297.6 137.2C297.6 137.5 297.7 137.9 297.9 138.2C299.8 141.5 301.3 145.7 302.1 150.7C303.1 156.2 303.5 160.9 303.5 164.8C303.5 171.1 302.9 176.7 301.6 181.7C300.9 184.5 300 186.6 298.9 187.9L298.9 194.2Z" fill-rule="evenodd"/><path d="M292.8 195.6C293.2 195.6 293.5 195.6 293.8 195.6L293.8 189C291 186.9 289.5 179.8 289.5 167.7C289.5 164.6 289.6 161.2 289.8 157.5C289.8 156.4 289.9 155.5 289.9 155C289.8 153 289.1 151.4 287.8 150.4C286.5 149.3 285 148.8 283.4 148.8C280.9 148.8 278.7 149.8 278.3 152.1C278.3 152.4 278.2 153 278.1 153.7C277.7 157.2 276.9 164.9 275.6 171.8L275.6 187.5C277 185.6 278.1 183.2 279 180.5C281 190.6 285.6 195.6 292.8 195.6Z" fill-rule="evenodd"/><path d="M229.4 137.6L229.3 137.6C223 137.6 218.1 140.6 214.7 146.5C211.8 151.5 210.3 157.6 210.3 164.6C210.3 165.1 210.3 166.4 210.4 168.4C210.5 170.5 210.9 173.2 211.8 176.6C212.7 179.9 214 183 215.7 185.7C218.9 190.9 223.5 194.3 229.4 194.5L229.4 188.6C224.5 185 221.9 171.4 221.9 166.7C221.9 162 222.5 157.8 223.8 154.1C224.4 154.5 225 154.7 225.7 154.7C226.7 154.7 228 154.1 228.2 152.9C228.4 151.9 228.8 151 229.4 150L229.4 137.6Z" fill-rule="evenodd"/><path d="M234.5 194C237.4 193.1 239.9 191.4 242.1 188.7C244.6 185.5 246.4 181.3 247.5 176C248.4 171.9 248.9 167.9 248.9 164C248.9 159.7 248.4 155.7 247.4 152.1C246 147 243.4 143.7 239.8 142.2C238.3 140.5 236.5 139.3 234.5 138.5L234.5 146C234.9 146 235.4 145.9 235.8 145.9C239 146 241.1 148.6 242.3 153.7C243.1 157 243.5 160.5 243.5 164C243.5 172.2 240.5 185.8 234.5 188.9L234.5 194Z" fill-rule="evenodd"/><path d="M182.1 159.5C180.3 159.7 178.4 160 176.5 160.3C176 147.8 175.5 140.7 174.9 139.3C174.1 137.6 172.2 136.7 168.9 136.7C165.5 136.7 163.7 137.6 163.7 139.3L163.7 139.5C164.5 147.5 164.9 155.6 165.2 163.7C164.3 164 163.5 164.4 162.7 164.8C162 165.2 161.7 165.7 161.7 166.3C161.7 167.5 162.8 168.9 164.3 168.9C164.6 168.9 165 168.8 165.3 168.6C165.5 175.5 165.6 181.8 165.6 187.6C165.6 192.5 168.5 194.4 171.3 194.4C174.3 194.4 177.2 193.1 177.2 190.3C177.2 182.3 177 173.8 176.7 164.8C178.5 164.4 180.3 164.1 182.1 163.9L182.1 159.5Z" fill-rule="evenodd"/><path d="M200.2 196.3C201 196.3 201.8 196 202.5 195.6C203.7 194.9 204.3 194.1 204.3 193L204.3 192.4C203.2 186.6 202.4 178.4 202 167.9C201.8 163.4 201.7 159.3 201.7 155.6C201.7 150.4 201.9 146 202.3 142.2C202.3 141.6 202.4 141 202.4 140.5C202.4 137.4 200.9 135.9 198 135.9C194.9 135.9 193.2 136.6 192.8 139.2C192.1 145.6 191.7 152.4 191.7 159.4C190.4 159.3 189 159.2 187.6 159.2C187.4 159.2 187.3 159.2 187.2 159.2L187.2 163.5C187.4 163.5 187.6 163.5 187.9 163.5C189.2 163.5 190.5 163.6 191.7 163.7C191.9 170.3 192.2 175.5 192.7 179.2C193.1 182.3 193.8 186 194.7 190.3C195.4 193.3 196.5 195.2 198.1 195.8C198.8 196.1 199.6 196.3 200.2 196.3Z" fill-rule="evenodd"/><path d="M146.1 141C149.1 141.8 151.1 144 152.2 147.7C152.4 148.2 152.8 148.7 153.4 149C153.8 149.2 154.3 149.3 154.8 149.3C155.8 149.3 156.5 149 157.1 148.3C157.3 148 157.5 147.6 157.5 147.2C157.5 147 157.4 146.8 157.4 146.6C155.8 141.4 151.9 137.1 146.1 135.3L146.1 141Z" fill-rule="evenodd"/><path d="M132.8 189.9C132.1 190 131.5 190 130.9 190C128.3 190 126.4 188.6 126.4 185.5C126.4 184.1 126.9 182.7 127.9 181.4C128.4 180.8 128.6 180.3 128.6 179.7C128.6 178.3 127.8 177.6 126 177.6C125.1 177.6 124.1 178.2 123 179.4C121.4 181.5 120.7 183.6 120.7 185.7C120.7 191 125.2 195.4 132.8 196.2L132.8 189.9Z" fill-rule="evenodd"/><path d="M137.9 196.3C148.5 195.4 157.6 188.9 157.4 180C157.4 171.5 150.3 167 143.4 162.7C137.1 158.9 131.3 155.1 131.3 148.9C131.3 144.5 136.9 141.6 141 140.8L141 134.5C140.7 134.5 140.4 134.5 140.1 134.5C129.4 134.4 118.7 140.7 118.9 149.9C118.9 159.8 126.5 164.5 133.6 168.6C136.7 170.3 139.3 172.1 141.5 174C143.7 175.9 144.9 178.3 145 181.2C145 182.6 144.2 183.9 142.6 185.3C141.3 186.4 139.7 187.4 137.9 188.3L137.9 196.3Z" fill-rule="evenodd"/><path d="M270.5 117.5H275.6V196.7H270.5ZZ" fill="none" stroke="#fff" stroke-width=".6"/><path d="M141 120.1H146.1V156.2H141ZZ" fill="none" stroke="#fff" stroke-width=".6"/></mask><rect x="-2" y="-2" width="510.9" height="399" mask="url(#c)"/></svg>